<?xml version="1.0" encoding="iso-8859-1"?>
<!-- Generator: Adobe Illustrator 19.0.0, SVG Export Plug-In . SVG Version: 6.00 Build 0)  -->
<svg version="1.1" id="Layer_1" xmlns="http://www.w3.org/2000/svg" xmlns:xlink="http://www.w3.org/1999/xlink" x="0px" y="0px"
	 viewBox="0 0 512 512" style="enable-background:new 0 0 512 512;" xml:space="preserve">
<path style="fill:#4B92B9;" d="M483.265,443.82H28.735c-11.542,0-20.898-9.356-20.898-20.898V78.106h496.327v344.816
	C504.163,434.464,494.807,443.82,483.265,443.82z"/>
<path style="fill:#79CAE8;" d="M504.163,412.473v10.449c0,11.546-9.352,20.898-20.898,20.898H28.735
	c-11.546,0-20.898-9.352-20.898-20.898v-10.449H504.163z"/>
<g>
	<rect x="80.98" y="243.984" style="fill:#8EC766;" width="15.673" height="15.673"/>
	<rect x="80.98" y="212.637" style="fill:#8EC766;" width="15.673" height="15.673"/>
</g>
<rect x="80.98" y="181.29" style="fill:#FFD85C;" width="15.673" height="15.673"/>
<rect x="80.98" y="149.943" style="fill:#FF503D;" width="15.673" height="15.673"/>
<rect x="148.198" y="243.984" style="fill:#8EC766;" width="15.673" height="15.673"/>
<rect x="148.198" y="212.637" style="fill:#FFD85C;" width="15.673" height="15.673"/>
<g>
	<rect x="148.198" y="181.29" style="fill:#FF503D;" width="15.673" height="15.673"/>
	<rect x="148.198" y="149.943" style="fill:#FF503D;" width="15.673" height="15.673"/>
</g>
<g>
	<rect x="215.071" y="243.984" style="fill:#FFD85C;" width="15.673" height="15.673"/>
	<rect x="215.071" y="212.637" style="fill:#FFD85C;" width="15.673" height="15.673"/>
</g>
<g>
	<rect x="215.071" y="181.29" style="fill:#FF503D;" width="15.673" height="15.673"/>
	<rect x="215.071" y="149.943" style="fill:#FF503D;" width="15.673" height="15.673"/>
</g>
<g>
	<rect x="281.945" y="243.984" style="fill:#8EC766;" width="15.673" height="15.673"/>
	<rect x="281.945" y="212.637" style="fill:#8EC766;" width="15.673" height="15.673"/>
	<rect x="281.945" y="181.29" style="fill:#8EC766;" width="15.673" height="15.673"/>
</g>
<rect x="281.945" y="149.943" style="fill:#FFD85C;" width="15.673" height="15.673"/>
<rect x="348.818" y="243.984" style="fill:#8EC766;" width="15.673" height="15.673"/>
<rect x="348.818" y="212.637" style="fill:#FFD85C;" width="15.673" height="15.673"/>
<rect x="348.818" y="108.147" style="fill:#CAF9F4;" width="82.202" height="39.184"/>
<rect x="368.504" y="124.343" style="fill:#FF503D;" width="15.673" height="22.988"/>
<g>
	<rect x="415.347" y="243.984" style="fill:#FFD85C;" width="15.673" height="15.673"/>
	<rect x="415.347" y="212.637" style="fill:#FFD85C;" width="15.673" height="15.673"/>
</g>
<g>
	<rect x="348.818" y="181.29" style="fill:#FF503D;" width="15.673" height="15.673"/>
	<rect x="415.347" y="181.29" style="fill:#FF503D;" width="15.673" height="15.673"/>
</g>
<circle cx="88.816" cy="118.596" r="10.449"/>
<circle cx="156.035" cy="118.596" r="10.449"/>
<circle cx="222.908" cy="118.596" r="10.449"/>
<circle cx="289.782" cy="118.596" r="10.449"/>
<path d="M431.02,70.269v-9.927h-15.673v9.927h-50.852v-9.927h-15.673v9.927h-51.2v-9.927h-15.673v9.927h-51.2v-9.927h-15.673v9.927
	h-51.2v-9.927h-15.673v9.927H96.653v-9.927H80.98v9.927H0v352.653c0,15.844,12.891,28.735,28.735,28.735h454.531
	c15.844,0,28.735-12.891,28.735-28.735V70.269H431.02z M496.327,85.943v318.694H15.673V85.943H496.327z M483.265,435.984H28.735
	c-7.202,0-13.061-5.859-13.061-13.061v-2.612h480.653v2.612C496.327,430.125,490.468,435.984,483.265,435.984z"/>
<rect x="415.692" y="319.08" width="15.673" height="64.982"/>
<rect x="415.692" y="279.573" width="15.673" height="23.833"/>
<rect x="81.324" y="345.203" width="15.673" height="38.86"/>
<rect x="81.324" y="279.573" width="15.673" height="49.957"/>
<rect x="148.198" y="355.652" width="15.673" height="28.411"/>
<rect x="148.198" y="279.573" width="15.673" height="60.406"/>
<rect x="215.071" y="324.305" width="15.673" height="59.758"/>
<rect x="215.071" y="279.573" width="15.673" height="29.058"/>
<rect x="281.945" y="345.203" width="15.673" height="38.86"/>
<rect x="281.945" y="279.573" width="15.673" height="49.957"/>
<rect x="348.818" y="345.203" width="15.673" height="38.86"/>
<rect x="348.818" y="279.573" width="15.673" height="49.957"/>
<path d="M438.857,100.31h-97.872v54.857h97.872V100.31z M423.184,139.494h-66.526v-23.51h66.526V139.494z"/>
<g>
	<rect x="407.51" y="295.57" style="fill:#FFFFFF;" width="31.347" height="15.673"/>
	<rect x="73.143" y="337.366" style="fill:#FFFFFF;" width="31.347" height="15.673"/>
	<rect x="140.016" y="332.142" style="fill:#FFFFFF;" width="31.347" height="15.673"/>
	<rect x="206.89" y="316.468" style="fill:#FFFFFF;" width="31.347" height="15.673"/>
	<rect x="273.763" y="321.693" style="fill:#FFFFFF;" width="31.347" height="15.673"/>
	<rect x="340.637" y="337.366" style="fill:#FFFFFF;" width="31.347" height="15.673"/>
</g>
<g>
</g>
<g>
</g>
<g>
</g>
<g>
</g>
<g>
</g>
<g>
</g>
<g>
</g>
<g>
</g>
<g>
</g>
<g>
</g>
<g>
</g>
<g>
</g>
<g>
</g>
<g>
</g>
<g>
</g>
</svg>
