<?xml version="1.0" encoding="iso-8859-1"?>
<!-- Generator: Adobe Illustrator 19.0.0, SVG Export Plug-In . SVG Version: 6.00 Build 0)  -->
<svg version="1.1" id="Capa_1" xmlns="http://www.w3.org/2000/svg" xmlns:xlink="http://www.w3.org/1999/xlink" x="0px" y="0px"
	 viewBox="0 0 512 512" style="enable-background:new 0 0 512 512;" xml:space="preserve">
<path style="fill:#EDBB57;" d="M512,256c0,141.385-114.615,256-256,256c-9.3,0-18.474-0.491-27.512-1.463
	c-13.061-1.4-25.83-3.772-38.222-7.053c-31.284-8.286-60.207-22.35-85.577-40.96c-21.076-15.475-39.696-34.095-55.16-55.171
	c-17.607-23.97-31.138-51.106-39.56-80.405v-0.01C3.48,304.41,0,280.618,0,256C0,114.615,114.615,0,256,0
	c132.086,0,240.818,100.039,254.537,228.488C511.509,237.526,512,246.7,512,256z"/>
<path style="fill:#5B5560;" d="M510.537,228.488L228.488,510.537c-94.427-10.094-173.505-71.513-208.76-155.826
	c-3.082-7.367-5.831-14.921-8.223-22.622c-0.637-2.048-1.254-4.106-1.829-6.175v-0.01c-3.772-13.302-6.499-27.031-8.077-41.117
	C0.543,275.341,0,265.738,0,256c0-5.214,0.157-10.386,0.47-15.517C8.182,111.449,111.459,8.171,240.483,0.47
	C245.614,0.157,250.786,0,256,0c9.728,0,19.331,0.543,28.777,1.609c17.095,1.912,33.677,5.496,49.58,10.616
	c75.274,24.168,135.367,82.244,162.283,156.244C503.578,187.517,508.311,207.632,510.537,228.488z"/>
<g>
	<path style="fill:#C4C2C6;" d="M496.64,168.469c-12.716,4.274-26.331,6.593-40.49,6.593c-70.113,0-126.945-56.842-126.945-126.955
		c0-12.466,1.797-24.503,5.151-35.882C409.631,36.394,469.723,94.469,496.64,168.469z"/>
	<path style="fill:#C4C2C6;" d="M190.265,503.484c-31.284-8.286-60.207-22.35-85.577-40.96
		c-21.076-15.475-39.696-34.095-55.16-55.171c-17.607-23.97-31.138-51.106-39.56-80.405v-0.01
		c5.548-2.539,12.309-1.526,16.875,3.041l159.431,159.431C190.088,493.223,191.425,498.583,190.265,503.484z"/>
</g>
<path style="fill:#DCDBDD;" d="M190.265,503.484c-31.284-8.286-60.207-22.35-85.577-40.96l-55.16-55.171
	c-17.607-23.97-31.138-51.106-39.56-80.405c5.548-2.55,12.309-1.536,16.875,3.03l159.431,159.431
	C190.088,493.223,191.425,498.583,190.265,503.484z"/>
<path style="fill:#C4C2C6;" d="M62.114,294.708l159.428,159.428c5.866,5.866,5.866,15.367,0,21.233l-14.035,14.035
	c-5.866,5.866-15.367,5.866-21.233,0L26.846,329.977c-5.866-5.866-5.866-15.367,0-21.233l14.035-14.035
	C46.747,288.842,56.248,288.842,62.114,294.708z"/>
<path style="fill:#DCDBDD;" d="M62.114,294.708l159.428,159.428c5.866,5.866,5.866,15.367,0,21.233l-6.118,6.118
	c-5.866,5.866-15.367,5.866-21.233,0L34.763,322.059c-5.866-5.866-5.866-15.367,0-21.233l6.118-6.118
	C46.747,288.842,56.248,288.842,62.114,294.708z"/>
<path style="fill:#C4C2C6;" d="M97.382,259.44l159.428,159.428c5.866,5.866,5.866,15.367,0,21.233l-14.035,14.035
	c-5.866,5.866-15.367,5.866-21.233,0L62.114,294.708c-5.866-5.866-5.866-15.367,0-21.233l14.035-14.035
	C82.015,253.574,91.516,253.574,97.382,259.44z"/>
<path style="fill:#DCDBDD;" d="M97.382,259.44l159.428,159.428c5.866,5.866,5.866,15.367,0,21.233l-6.118,6.118
	c-5.866,5.866-15.367,5.866-21.233,0L70.031,286.79c-5.866-5.866-5.866-15.367,0-21.233l6.118-6.118
	C82.015,253.574,91.516,253.574,97.382,259.44z"/>
<path style="fill:#C4C2C6;" d="M132.651,224.171L292.079,383.6c5.866,5.866,5.866,15.367,0,21.233l-14.035,14.035
	c-5.866,5.866-15.367,5.866-21.233,0L97.382,259.44c-5.866-5.866-5.866-15.367,0-21.233l14.035-14.035
	C117.284,218.305,126.785,218.305,132.651,224.171z"/>
<path style="fill:#DCDBDD;" d="M132.651,224.171L292.079,383.6c5.866,5.866,5.866,15.367,0,21.233l-6.118,6.118
	c-5.866,5.866-15.367,5.866-21.233,0L105.3,251.522c-5.866-5.866-5.866-15.367,0-21.233l6.118-6.118
	C117.284,218.305,126.785,218.305,132.651,224.171z"/>
<path style="fill:#C4C2C6;" d="M167.919,188.903l159.428,159.428c5.866,5.866,5.866,15.367,0,21.233L313.313,383.6
	c-5.866,5.866-15.367,5.866-21.233,0L132.651,224.171c-5.866-5.866-5.866-15.367,0-21.233l14.035-14.035
	C152.552,183.037,162.053,183.037,167.919,188.903z"/>
<path style="fill:#DCDBDD;" d="M167.919,188.903l159.428,159.428c5.866,5.866,5.866,15.367,0,21.233l-6.118,6.118
	c-5.866,5.866-15.367,5.866-21.233,0l-159.428-159.43c-5.866-5.866-5.866-15.367,0-21.233l6.118-6.118
	C152.552,183.037,162.053,183.037,167.919,188.903z"/>
<path style="fill:#C4C2C6;" d="M203.188,153.634l159.427,159.427c5.866,5.866,5.866,15.367,0,21.233L348.58,348.33
	c-5.866,5.866-15.367,5.866-21.233,0L167.919,188.903c-5.866-5.866-5.866-15.367,0-21.233l14.035-14.035
	C187.82,147.768,197.322,147.768,203.188,153.634z"/>
<path style="fill:#DCDBDD;" d="M203.188,153.634l159.427,159.427c5.866,5.866,5.866,15.367,0,21.233l-6.118,6.118
	c-5.866,5.866-15.367,5.866-21.233,0L175.836,180.985c-5.866-5.866-5.866-15.367,0-21.233l6.118-6.118
	C187.82,147.768,197.322,147.768,203.188,153.634z"/>
<path style="fill:#C4C2C6;" d="M238.456,118.366l159.428,159.428c5.866,5.866,5.866,15.367,0,21.233l-14.035,14.035
	c-5.866,5.866-15.367,5.866-21.233,0L203.188,153.634c-5.866-5.866-5.866-15.367,0-21.233l14.035-14.035
	C223.089,112.499,232.59,112.499,238.456,118.366z"/>
<path style="fill:#DCDBDD;" d="M238.456,118.366l159.428,159.428c5.866,5.866,5.866,15.367,0,21.233l-6.118,6.118
	c-5.866,5.866-15.367,5.866-21.233,0l-159.428-159.43c-5.866-5.866-5.866-15.367,0-21.233l6.118-6.118
	C223.089,112.499,232.59,112.499,238.456,118.366z"/>
<path style="fill:#C4C2C6;" d="M273.725,83.097l159.428,159.428c5.866,5.866,5.866,15.367,0,21.233l-14.035,14.035
	c-5.866,5.866-15.367,5.866-21.233,0L238.456,118.366c-5.866-5.866-5.866-15.367,0-21.233l14.035-14.035
	C258.357,77.23,267.859,77.23,273.725,83.097z"/>
<path style="fill:#DCDBDD;" d="M273.725,83.097l159.428,159.428c5.866,5.866,5.866,15.367,0,21.233l-6.118,6.118
	c-5.866,5.866-15.367,5.866-21.233,0L246.373,110.448c-5.866-5.866-5.866-15.367,0-21.233l6.118-6.118
	C258.357,77.23,267.859,77.23,273.725,83.097z"/>
<path style="fill:#C4C2C6;" d="M308.993,47.828l159.428,159.428c5.866,5.866,5.866,15.367,0,21.233l-14.035,14.035
	c-5.866,5.866-15.367,5.866-21.233,0L273.725,83.097c-5.866-5.866-5.866-15.367,0-21.233l14.035-14.035
	C293.626,41.962,303.127,41.962,308.993,47.828z"/>
<path style="fill:#DCDBDD;" d="M308.993,47.828l159.428,159.428c5.866,5.866,5.866,15.367,0,21.233l-6.118,6.118
	c-5.866,5.866-15.367,5.866-21.233,0L281.642,75.179c-5.866-5.866-5.866-15.367,0-21.233l6.118-6.118
	C293.626,41.962,303.127,41.962,308.993,47.828z"/>
<path style="fill:#C4C2C6;" d="M344.261,12.56L503.69,171.988c5.866,5.866,5.866,15.367,0,21.233l-14.035,14.035
	c-5.866,5.866-15.367,5.866-21.233,0L308.993,47.828c-5.866-5.866-5.866-15.367,0-21.233l14.035-14.035
	C328.894,6.694,338.395,6.694,344.261,12.56z"/>
<path style="fill:#DCDBDD;" d="M344.261,12.56L503.69,171.988c5.866,5.866,5.866,15.367,0,21.233l-6.118,6.118
	c-5.866,5.866-15.367,5.866-21.233,0L316.91,39.911c-5.866-5.866-5.866-15.367,0-21.233l6.118-6.118
	C328.894,6.694,338.395,6.694,344.261,12.56z"/>
<path style="fill:#5B5560;" d="M150.559,432.63l-21.065,21.065c-2.978,2.978-7.795,2.978-10.783,0l-98.983-98.983
	c-3.082-7.367-5.831-14.921-8.223-22.622c-0.637-2.048-1.254-4.106-1.829-6.175v-0.01l22.476-22.465l118.408,118.408
	C153.537,424.824,153.537,429.652,150.559,432.63z"/>
<path style="fill:#726E75;" d="M150.559,432.63l-13.866,13.866c-2.978,2.978-7.795,2.978-10.783,0L11.504,332.089
	c-0.637-2.048-1.254-4.106-1.829-6.175l22.476-22.476l118.408,118.408C153.537,424.824,153.537,429.652,150.559,432.63z"/>
<path style="fill:#5B5560;" d="M137.956,197.633l118.409,118.409c2.98,2.98,2.98,7.802,0,10.782l-21.06,21.06
	c-2.98,2.98-7.802,2.98-10.782,0l-118.41-118.409L137.956,197.633z"/>
<path style="fill:#726E75;" d="M137.956,197.633l118.409,118.409c2.98,2.98,2.98,7.802,0,10.782l-13.863,13.863
	c-2.98,2.98-7.802,2.98-10.782,0L113.311,222.278L137.956,197.633z"/>
<path style="fill:#5B5560;" d="M177.182,158.407l118.409,118.408c2.98,2.98,2.98,7.802,0,10.782l-21.06,21.06
	c-2.98,2.98-7.802,2.98-10.782,0L145.34,190.249L177.182,158.407z"/>
<path style="fill:#726E75;" d="M177.182,158.407l118.409,118.408c2.98,2.98,2.98,7.802,0,10.782l-13.863,13.863
	c-2.98,2.98-7.802,2.98-10.782,0L152.537,183.05L177.182,158.407z"/>
<path style="fill:#5B5560;" d="M243.761,91.828L362.17,210.237c2.98,2.98,2.98,7.802,0,10.782l-21.06,21.06
	c-2.98,2.98-7.802,2.98-10.782,0L211.919,123.67L243.761,91.828z"/>
<path style="fill:#726E75;" d="M243.761,91.828L362.17,210.237c2.98,2.98,2.98,7.802,0,10.782l-13.863,13.863
	c-2.98,2.98-7.802,2.98-10.782,0L219.116,116.473L243.761,91.828z"/>
<path style="fill:#353434;" d="M284.776,1.609L1.599,284.787C0.543,275.341,0,265.738,0,256c0-5.214,0.157-10.386,0.47-15.517
	L240.483,0.47C245.614,0.157,250.786,0,256,0C265.728,0,275.331,0.543,284.776,1.609z"/>
<g>
</g>
<g>
</g>
<g>
</g>
<g>
</g>
<g>
</g>
<g>
</g>
<g>
</g>
<g>
</g>
<g>
</g>
<g>
</g>
<g>
</g>
<g>
</g>
<g>
</g>
<g>
</g>
<g>
</g>
</svg>
